<?xml version="1.0" standalone="no"?>
<!DOCTYPE svg PUBLIC "-//W3C//DTD SVG 20010904//EN"
 "http://www.w3.org/TR/2001/REC-SVG-20010904/DTD/svg10.dtd">
<svg version="1.0" xmlns="http://www.w3.org/2000/svg"
 width="512.000000pt" height="512.000000pt" viewBox="0 0 512.000000 512.000000"
 preserveAspectRatio="xMidYMid meet">
<metadata>
Created by potrace 1.14, written by Peter Selinger 2001-2017
</metadata>
<g transform="translate(0.000000,512.000000) scale(0.100000,-0.100000)"
fill="#000000" stroke="none">
<path d="M2255 5028 c-2 -7 -15 -57 -29 -111 -13 -54 -26 -100 -28 -101 -1 -1
-19 -9 -39 -18 l-36 -16 -94 59 c-52 32 -96 59 -99 59 -4 0 -401 -394 -428
-424 -2 -2 23 -48 56 -102 l59 -98 -17 -40 -18 -40 -109 -26 -108 -26 -3 -192
-2 -192 -383 -1 c-411 -1 -396 0 -470 -24 -101 -33 -182 -109 -234 -221 l-28
-59 -3 -1288 -2 -1287 -81 0 -81 0 4 -248 3 -247 32 -67 c41 -88 113 -160 201
-201 l67 -32 2155 -2 c2297 -3 2184 -5 2284 42 84 40 170 145 199 242 12 40
16 106 17 282 l1 231 -81 0 -80 0 0 1253 c-1 688 -3 1270 -6 1292 -8 67 -69
179 -122 226 -57 51 -152 97 -212 103 -25 3 -210 5 -412 5 l-368 1 -2 192 -3
193 -107 25 c-106 25 -106 25 -126 66 l-20 40 60 98 59 99 -23 24 c-20 22
-393 393 -402 401 -2 1 -48 -24 -102 -56 l-99 -59 -38 17 c-21 10 -38 19 -39
21 0 2 -13 51 -28 109 l-27 105 -302 3 c-236 2 -302 0 -306 -10z m388 -964
c86 -29 157 -133 157 -230 0 -91 -84 -200 -172 -222 -62 -16 -93 -15 -151 6
-181 65 -210 316 -49 419 25 15 54 31 66 35 38 11 102 8 149 -8z"/>
</g>
</svg>
